<svg xmlns="http://www.w3.org/2000/svg" version="1.1" xmlns:xlink="http://www.w3.org/1999/xlink" xmlns:svgjs="http://svgjs.dev/svgjs" width="1000" height="1000" viewBox="0 0 1000 1000"><rect width="1000" height="1000" fill="#ffffff"></rect><g transform="matrix(0.7,0,0,0.7,149.57575759636507,431.3215060615432)"><svg viewBox="0 0 396 78" data-background-color="#ffffff" preserveAspectRatio="xMidYMid meet" height="196" width="1000" xmlns="http://www.w3.org/2000/svg" xmlns:xlink="http://www.w3.org/1999/xlink"><g id="tight-bounds" transform="matrix(1,0,0,1,0.24000001165791218,0.044627426670899695)"><svg viewBox="0 0 395.52 77.91074773951254" height="77.91074773951254" width="395.52"><g><svg viewBox="0 0 395.52 77.91074773951254" height="77.91074773951254" width="395.52"><g><svg viewBox="0 0 395.52 77.91074773951254" height="77.91074773951254" width="395.52"><g><svg viewBox="0 0 395.52 77.91074773951254" height="77.91074773951254" width="395.52"><g><svg viewBox="0 0 395.52 77.91074773951254" height="77.91074773951254" width="395.52"><g transform="matrix(1,0,0,1,0,0)"><svg width="395.52" viewBox="2.039130449295044 -37.099998474121094 232.74087524414062 45.849998474121094" height="77.91074773951254" data-palette-color="#ee3e38"><path d="M16.25-8.15L16.25-8.15Q16.25-3.85 14.38-1.68 12.5 0.5 8.25 0.5L8.25 0.5Q6.3 0.5 4.8 0.08 3.3-0.35 2.65-0.55L2.65-0.55Q2.35-0.7 2.18-0.9 2-1.1 2.05-1.5L2.05-1.5 2.5-4.2Q2.6-4.8 3.15-4.65L3.15-4.65Q3.9-4.35 4.78-4 5.65-3.65 7.25-3.65L7.25-3.65Q9.5-3.65 10.48-4.85 11.45-6.05 11.45-9.25L11.45-9.25 11.45-36.45Q11.45-37.1 12.05-37.1L12.05-37.1 15.7-37.1Q16.25-37.1 16.25-36.45L16.25-36.45 16.25-8.15ZM26.2 8.25L26.2 8.25Q24.75 8.25 23.95 8.15 23.15 8.05 23.15 7.6L23.15 7.6 23.15 5.65Q23.15 5.3 23.42 5.15 23.7 5 24.55 5L24.55 5 27.7 5Q28.8 5 29.7 4.28 30.6 3.55 31.2 2.45 31.8 1.35 32 0.23 32.2-0.9 31.85-1.75L31.85-1.75 22.3-25.65Q22.2-26 22.32-26.25 22.45-26.5 22.85-26.5L22.85-26.5 25.95-26.5Q26.25-26.5 26.45-26.38 26.65-26.25 26.75-25.95L26.75-25.95 34.2-6.55Q34.4-6.1 34.65-6.1 34.9-6.1 35.1-6.7L35.1-6.7 42.45-25.95Q42.6-26.25 42.75-26.38 42.9-26.5 43.15-26.5L43.15-26.5 45.5-26.5Q45.85-26.5 46-26.28 46.15-26.05 46-25.75L46-25.75 35 2.35Q34.3 4.15 33.45 5.3 32.6 6.45 31.52 7.08 30.45 7.7 29.15 7.98 27.85 8.25 26.2 8.25L26.2 8.25ZM60.25-2.8L60.25-2.8Q62.4-2.8 64.37-3.98 66.34-5.15 68.3-7.15L68.3-7.15 68.3-25.75Q68.3-26.5 69.09-26.5L69.09-26.5 71.84-26.5Q72.55-26.5 72.55-25.8L72.55-25.8 72.45-0.65Q72.45 0 71.9 0L71.9 0 69 0Q68.45 0 68.45-0.55L68.45-0.55 68.45-3.5Q68.45-3.75 68.34-3.8 68.25-3.85 68-3.65L68-3.65Q65.25-1.3 63.12-0.4 61 0.5 58.9 0.5L58.9 0.5Q56.6 0.5 54.8-0.45 53-1.4 51.95-3.13 50.9-4.85 50.9-7.15L50.9-7.15 50.9-25.7Q50.9-26.5 51.65-26.5L51.65-26.5 54.45-26.5Q55.1-26.5 55.1-25.8L55.1-25.8 55.1-8.25Q55.1-5.8 56.47-4.3 57.85-2.8 60.25-2.8L60.25-2.8ZM81.94-37.1L81.94-37.1Q82.29-37.1 83.39-37.1 84.49-37.1 85.79-37.08 87.09-37.05 88.19-37.05 89.29-37.05 89.74-37.05L89.74-37.05Q96.69-36.95 100.97-34.85 105.24-32.75 107.22-28.75 109.19-24.75 109.19-18.85L109.19-18.85Q109.19-12.6 107.04-8.4 104.89-4.2 100.44-2.1 95.99 0 89.24 0L89.24 0 81.89 0Q81.19 0 81.19-0.8L81.19-0.8 81.19-36.4Q81.19-36.75 81.37-36.93 81.54-37.1 81.94-37.1L81.94-37.1ZM86.49-33.45L86.49-33.45Q85.99-33.45 85.99-32.75L85.99-32.75 85.99-4.15Q85.99-3.6 86.59-3.6L86.59-3.6 88.49-3.6Q94.04-3.6 97.49-5.08 100.94-6.55 102.57-9.85 104.19-13.15 104.19-18.6L104.19-18.6Q104.19-24.3 102.52-27.53 100.84-30.75 97.42-32.1 93.99-33.45 88.74-33.45L88.74-33.45 86.49-33.45ZM119.09-11.6L119.09-11.6Q119.09-9.15 120.27-7.13 121.44-5.1 123.41-3.9 125.39-2.7 127.84-2.7L127.84-2.7Q130.34-2.7 132.29-3.73 134.24-4.75 135.64-6.85L135.64-6.85Q135.84-7.05 135.97-7.08 136.09-7.1 136.34-7L136.34-7 138.44-5.95Q138.89-5.7 138.54-5.25L138.54-5.25Q137.19-3.25 135.56-1.98 133.94-0.7 131.94-0.1 129.94 0.5 127.44 0.5L127.44 0.5Q123.74 0.5 120.89-1.2 118.04-2.9 116.39-5.95 114.74-9 114.74-13L114.74-13Q114.74-17.35 116.41-20.48 118.09-23.6 120.97-25.3 123.84-27 127.39-27L127.39-27Q131.04-27 133.74-25.4 136.44-23.8 137.94-20.75 139.44-17.7 139.44-13.4L139.44-13.4Q139.44-13.05 139.37-12.7 139.29-12.35 138.69-12.35L138.69-12.35 119.54-12.35Q119.34-12.35 119.22-12.13 119.09-11.9 119.09-11.6L119.09-11.6ZM119.19-15.1L134.39-15.1Q134.94-15.1 135.09-15.23 135.24-15.35 135.24-15.8L135.24-15.8Q135.24-17.95 134.31-19.83 133.39-21.7 131.66-22.85 129.94-24 127.49-24L127.49-24Q124.79-24 122.94-22.73 121.09-21.45 120.14-19.4 119.19-17.35 119.19-15.1L119.19-15.1ZM161.24-20.65L161.24-20.65Q160.24-22.15 158.44-23.1 156.64-24.05 154.14-24.05L154.14-24.05Q151.44-24.05 149.66-22.9 147.89-21.75 147.89-19.8L147.89-19.8Q147.89-18.75 148.69-17.82 149.49-16.9 151.94-16.1L151.94-16.1 158.29-14.2Q161.74-13.25 163.26-11.45 164.79-9.65 164.79-7.3L164.79-7.3Q164.79-4.95 163.39-3.2 161.99-1.45 159.54-0.48 157.09 0.5 153.99 0.5L153.99 0.5Q150.04 0.5 147.09-1.07 144.14-2.65 142.89-5L142.89-5Q142.74-5.25 142.74-5.45 142.74-5.65 142.99-5.8L142.99-5.8 144.94-6.9Q145.19-7.05 145.39-7.03 145.59-7 145.69-6.85L145.69-6.85Q146.54-5.55 147.66-4.6 148.79-3.65 150.36-3.1 151.94-2.55 154.04-2.55L154.04-2.55Q155.94-2.6 157.49-3.1 159.04-3.6 159.94-4.58 160.84-5.55 160.84-6.85L160.84-6.85Q160.84-8.2 159.74-9.18 158.64-10.15 155.94-10.9L155.94-10.9 150.79-12.35Q147.04-13.35 145.51-15.05 143.99-16.75 143.94-19.05L143.94-19.05Q143.94-21.45 145.24-23.23 146.54-25 148.86-26 151.19-27 154.19-27L154.19-27Q157.54-27 160.16-25.73 162.79-24.45 164.14-22.35L164.14-22.35Q164.29-22.15 164.29-21.98 164.29-21.8 164.09-21.65L164.09-21.65 161.99-20.5Q161.79-20.4 161.61-20.43 161.44-20.45 161.24-20.65L161.24-20.65ZM175.14-25.85L175.14-0.85Q175.14-0.35 174.96-0.18 174.78 0 174.24 0L174.24 0 171.69 0Q171.24 0 171.09-0.15 170.94-0.3 170.94-0.7L170.94-0.7 170.94-25.8Q170.94-26.5 171.53-26.5L171.53-26.5 174.59-26.5Q175.14-26.5 175.14-25.85L175.14-25.85ZM175.34-36.35L175.34-32.2Q175.34-31.25 174.44-31.25L174.44-31.25 171.53-31.25Q171.09-31.25 170.94-31.48 170.78-31.7 170.78-32.1L170.78-32.1 170.78-36.3Q170.78-37.1 171.49-37.1L171.49-37.1 174.64-37.1Q175.34-37.1 175.34-36.35L175.34-36.35ZM206.83-26.95L206.83-26.95Q207.33-26.95 207.56-26.75 207.78-26.55 207.78-26.15L207.78-26.15 207.78-24.4Q207.78-23.95 207.56-23.7 207.33-23.45 206.78-23.5L206.78-23.5Q205.98-23.5 205.38-23.4 204.78-23.3 204.18-23.05L204.18-23.05Q202.98-22.6 203.18-21.9L203.18-21.9Q203.43-21.35 203.73-20.58 204.03-19.8 204.03-18.5L204.03-18.5Q204.03-16.3 202.88-14.48 201.73-12.65 199.31-11.55 196.88-10.45 193.18-10.45L193.18-10.45Q190.63-10.45 189.18-10.15 187.73-9.85 187.13-9.35 186.53-8.85 186.53-8.3L186.53-8.3Q186.53-7.5 187.61-7.15 188.68-6.8 191.08-6.65L191.08-6.65 197.53-6.3Q201.93-6.05 203.98-4.2 206.03-2.35 206.03 0.65L206.03 0.65Q206.03 4.4 202.71 6.58 199.38 8.75 193.23 8.75L193.23 8.75Q186.88 8.75 183.56 6.93 180.23 5.1 180.23 1.7L180.23 1.7Q180.23-0.05 181.46-1.45 182.68-2.85 184.93-3.95L184.93-3.95Q185.48-4.2 184.93-4.5L184.93-4.5Q183.83-5 183.23-5.73 182.63-6.45 182.63-7.45L182.63-7.45Q182.63-8.15 183.08-8.85 183.53-9.55 184.41-10.15 185.28-10.75 186.53-11.2L186.53-11.2Q186.83-11.3 186.83-11.45 186.83-11.6 186.58-11.8L186.58-11.8Q184.38-12.9 183.33-14.55 182.28-16.2 182.28-18.5L182.28-18.5Q182.28-22.4 185.23-24.65 188.18-26.9 193.58-26.9L193.58-26.9Q196.18-26.9 198.01-26.3 199.83-25.7 201.08-24.65L201.08-24.65Q201.38-24.4 201.63-24.4 201.88-24.4 202.13-24.65L202.13-24.65Q202.73-25.2 203.48-25.73 204.23-26.25 205.11-26.6 205.98-26.95 206.83-26.95L206.83-26.95ZM193.18-13.1L193.18-13.1Q196.68-13.1 198.38-14.53 200.08-15.95 200.08-18.55L200.08-18.55Q200.08-21.2 198.38-22.73 196.68-24.25 193.18-24.25L193.18-24.25Q189.83-24.25 188.01-22.73 186.18-21.2 186.18-18.55L186.18-18.55Q186.18-15.95 188.01-14.53 189.83-13.1 193.18-13.1L193.18-13.1ZM197.13-2.75L188.78-3.25Q187.88-3.3 186.78-2.73 185.68-2.15 184.83-1.15 183.98-0.15 183.98 1.2L183.98 1.2Q183.98 2.75 185.06 3.88 186.13 5 188.31 5.58 190.48 6.15 193.68 6.15L193.68 6.15Q197.83 6.15 199.98 4.93 202.13 3.7 202.13 1.15L202.13 1.15Q202.13-0.5 201.01-1.55 199.88-2.6 197.13-2.75L197.13-2.75ZM213.68 0L213.68 0Q212.98 0 212.98-0.65L212.98-0.65 212.98-25.85Q212.98-26.5 213.53-26.5L213.53-26.5 216.53-26.5Q217.08-26.5 217.08-25.95L217.08-25.95 217.08-23.05Q217.08-22.8 217.18-22.75 217.28-22.7 217.53-22.9L217.53-22.9Q219.18-24.2 220.6-25.13 222.03-26.05 223.53-26.53 225.03-27 226.73-27L226.73-27Q230.63-27 232.7-24.9 234.78-22.8 234.78-19.45L234.78-19.45 234.78-0.8Q234.78 0 234.03 0L234.03 0 231.23 0Q230.88 0 230.73-0.18 230.58-0.35 230.58-0.65L230.58-0.65 230.58-18.5Q230.58-20.95 229.33-22.33 228.08-23.7 225.38-23.7L225.38-23.7Q223.93-23.7 222.66-23.23 221.38-22.75 220.08-21.88 218.78-21 217.18-19.65L217.18-19.65 217.18-0.75Q217.18 0 216.43 0L216.43 0 213.68 0Z" opacity="1" transform="matrix(1,0,0,1,0,0)" fill="#ee3e38" class="undefined-text-0" data-fill-palette-color="primary" id="text-0"></path></svg></g></svg></g></svg></g></svg></g></svg></g><defs></defs></svg><rect width="395.52" height="77.91074773951254" fill="none" stroke="none" visibility="hidden"></rect></g></svg></g></svg>